<svg xmlns="http://www.w3.org/2000/svg" viewBox="0 0 512 512"><defs><linearGradient id="g" x1="0" y1="0" x2="1" y2="1"><stop stop-color="#60a5fa"/><stop offset=".55" stop-color="#2563eb"/><stop offset="1" stop-color="#0f172a"/></linearGradient></defs><rect width="512" height="512" rx="118" fill="url(#g)"/><path d="M130 320c80-95 150-95 252-190" stroke="#fff" stroke-width="20" fill="none" stroke-linecap="round" opacity=".55"/><path d="M162 196h188c24 0 44 20 44 44v104c0 24-20 44-44 44H162c-24 0-44-20-44-44V240c0-24 20-44 44-44z" fill="#fff"/><path d="M208 196v-28c0-30 24-54 54-54h4c30 0 54 24 54 54v28" fill="none" stroke="#fff" stroke-width="26" stroke-linecap="round"/><path d="M366 124l-32 84 84-32-34-18z" fill="#fff"/></svg>